<svg xmlns="http://www.w3.org/2000/svg" width="1200" height="630" viewBox="0 0 1200 630">
  <defs>
    <linearGradient id="bg" x1="0" y1="0" x2="1" y2="1">
      <stop offset="0" stop-color="#0c0a09"/>
      <stop offset="1" stop-color="#1e3a5f"/>
    </linearGradient>
  </defs>
  <rect width="1200" height="630" fill="url(#bg)"/>
  <g opacity="0.08" stroke="#ffffff" stroke-width="1.5">
    <path d="M0 105h1200M0 210h1200M0 315h1200M0 420h1200M0 525h1200"/>
    <path d="M100 0v630M300 0v630M500 0v630M700 0v630M900 0v630M1100 0v630"/>
  </g>
  <g transform="translate(120,150)">
    <rect width="96" height="96" rx="22" fill="#2563eb"/>
    <path d="M26 30h44M26 45h34M26 60h40M26 75h22" stroke="#ffffff" stroke-width="7" stroke-linecap="round"/>
    <circle cx="74" cy="75" r="7.5" fill="#fbbf24"/>
  </g>
  <text x="120" y="360" font-family="'PingFang SC','Microsoft YaHei','Noto Sans SC',sans-serif" font-size="88" font-weight="700" fill="#ffffff">流水账</text>
  <text x="120" y="430" font-family="'PingFang SC','Microsoft YaHei','Noto Sans SC',sans-serif" font-size="34" fill="#a8a29e">先记下 · 再整理 · 可长期保存</text>
  <text x="120" y="500" font-family="system-ui,sans-serif" font-size="26" fill="#60a5fa">灵感速记 / AI 归档 / 项目动态 / 博客</text>
</svg>
